<svg xmlns="http://www.w3.org/2000/svg" viewBox="0 0 498.05 122.31">
  <defs>
    <style>
      .cls-1 {
        fill: #474163;
      }

      .cls-2 {
        fill: #9c90b6;
      }

      .cls-3 {
        fill: none;
        stroke: #474163;
        stroke-linecap: round;
        stroke-linejoin: bevel;
        stroke-width: 9px;
      }
    </style>
  </defs>
  <title>Asset 3</title>
  <g id="Layer_2" data-name="Layer 2">
    <g id="Layer_1-2" data-name="Layer 1">
      <g>
        <g>
          <path class="cls-1" d="M34.59,23.07l-29.23.17A5.3,5.3,0,0,1,0,18.08a5.41,5.41,0,0,1,5.3-5.36l70-.4a5.41,5.41,0,0,1,5.36,5.29,5.29,5.29,0,0,1-5.3,5.22L46.11,23l.49,85.24a5.76,5.76,0,1,1-11.51.07Z"/>
          <path class="cls-1" d="M114.19,17.85a5.75,5.75,0,0,1,5.59-5.79l37.72-.22c12.39-.07,22.34,3.61,28.72,9.91a27.89,27.89,0,0,1,7.89,19.83v.29c.1,16.55-11.08,26.27-26.76,29.38l25.24,32.11a6.19,6.19,0,0,1,1.9,4.17,6,6,0,0,1-5.73,5.65,6.61,6.61,0,0,1-5.34-3L154.84,73.49l-28.95.16.2,34.13a5.69,5.69,0,1,1-11.37.07Zm42.6,45.4c15.12-.09,25.88-7.93,25.8-20.88v-.29c-.07-12.39-9.62-19.82-25.89-19.72l-31.1.18.24,40.89Z"/>
          <path class="cls-1" d="M232.27,16.45a5.69,5.69,0,1,1,11.37-.07l.53,90.72a5.69,5.69,0,1,1-11.38.06Z"/>
          <path class="cls-1" d="M425.56,99a5.13,5.13,0,0,1-2.18-4.31A5.5,5.5,0,0,1,428.82,89a5,5,0,0,1,3.46,1.28c9.55,8,19.08,11.84,31.89,11.76,13.54-.08,22.42-7.33,22.36-17.26v-.29c0-9.36-5.12-14.66-26.31-19-23.22-4.91-33.92-12.33-34-28.89v-.29c-.1-15.84,13.8-27.58,33-27.69,13.25-.08,22.92,3.18,32.17,9.75A5.82,5.82,0,0,1,493.81,23a5.47,5.47,0,0,1-5.44,5.5,5.26,5.26,0,0,1-3.32-1c-8.53-6.14-16.75-8.68-26.11-8.63-13.11.08-21.42,7.33-21.37,16.4v.29c.05,9.5,5.27,14.8,27.47,19.42,22.49,4.76,32.91,12.91,33,28.32v.29c.1,17.28-14.24,28.59-34.25,28.71C449.11,112.39,436.85,107.85,425.56,99Z"/>
        </g>
        <g>
          <g>
            <path class="cls-2" d="M383.82,90a10.49,10.49,0,0,1-18-.07l9.43-5.14L375.56,74A10.5,10.5,0,0,1,383.82,90Z"/>
            <path class="cls-2" d="M375.56,74l-.27,10.74-9.43,5.14A10.5,10.5,0,0,1,375.56,74Z"/>
            <path class="cls-2" d="M325.28,118.65a10.5,10.5,0,0,1-3.47-14.43,8.93,8.93,0,0,1,.68-1l8.89,5.43,8.29-4.51a10.49,10.49,0,0,1-14.39,14.49Z"/>
            <path class="cls-2" d="M367.71,29.38a10.49,10.49,0,1,1,8.52,17.39l.3-12Z"/>
            <path class="cls-2" d="M370.12,45.26a10.49,10.49,0,0,1-3.48-14.43,10.87,10.87,0,0,1,1.06-1.46h0l8.82,5.38-.3,12A10.32,10.32,0,0,1,370.12,45.26Z"/>
            <path class="cls-2" d="M322.49,103.24a10.49,10.49,0,0,1,17.19.91h0l-8.29,4.51Z"/>
            <path class="cls-2" d="M289,72.54a10.5,10.5,0,0,1,9.14,15.8l-9.39-5.73Z"/>
            <path class="cls-2" d="M298,88.51a10.5,10.5,0,1,1-9-16l-.25,10.07,9.39,5.73Z"/>
            <path class="cls-2" d="M342.32,16a10.51,10.51,0,0,1-18.75-1.66h0l10.3-5.6,9.26,5.65A12.24,12.24,0,0,1,342.32,16Z"/>
            <path class="cls-2" d="M324.39,5a10.51,10.51,0,0,1,18.74,9.33l-9.26-5.65-10.3,5.6A10.51,10.51,0,0,1,324.39,5Z"/>
            <path class="cls-2" d="M298.49,37.84a10.45,10.45,0,0,1-8.78,5L290,32.62l9-4.89A10.48,10.48,0,0,1,298.49,37.84Z"/>
            <path class="cls-2" d="M289.71,42.86A10.5,10.5,0,1,1,299,27.72h0l-9,4.89-.25,10.23Z"/>
          </g>
          <g>
            <line class="cls-3" x1="375.56" y1="74.01" x2="376.23" y2="46.77"/>
            <line class="cls-3" x1="339.68" y1="104.15" x2="365.86" y2="89.89"/>
            <line class="cls-3" x1="298.11" y1="88.34" x2="322.49" y2="103.24"/>
            <line class="cls-3" x1="289.71" y1="42.86" x2="288.97" y2="72.54"/>
            <line class="cls-3" x1="323.57" y1="14.32" x2="298.95" y2="27.72"/>
            <line class="cls-3" x1="367.7" y1="29.37" x2="343.13" y2="14.36"/>
          </g>
        </g>
        <line class="cls-3" x1="365.96" y1="117.81" x2="342.6" y2="78.82"/>
      </g>
    </g>
  </g>
</svg>
